<?xml version="1.0" standalone="no"?>
<!DOCTYPE svg PUBLIC "-//W3C//DTD SVG 20010904//EN"
 "http://www.w3.org/TR/2001/REC-SVG-20010904/DTD/svg10.dtd">
<svg version="1.0" xmlns="http://www.w3.org/2000/svg"
 width="400.000000pt" height="400.000000pt" viewBox="0 0 400.000000 400.000000"
 preserveAspectRatio="xMidYMid meet">
<metadata>
Created by potrace 1.14, written by Peter Selinger 2001-2017
</metadata>
<g transform="translate(0.000000,400.000000) scale(0.100000,-0.100000)"
fill="#000000" stroke="none">
<path d="M0 2000 l0 -2000 2000 0 2000 0 0 2000 0 2000 -2000 0 -2000 0 0
-2000z m2045 1215 c14 -13 25 -36 25 -50 0 -33 -42 -75 -75 -75 -33 0 -75 42
-75 75 0 33 42 75 75 75 14 0 37 -11 50 -25z m-653 -62 c36 -32 12 -103 -35
-103 -49 0 -75 64 -40 102 20 22 51 23 75 1z m1279 7 c13 -7 19 -21 19 -44 0
-38 -19 -58 -55 -58 -34 0 -55 19 -55 53 0 49 44 73 91 49z m-1102 -265 c33
-16 41 -33 41 -81 0 -75 -88 -111 -147 -60 -22 19 -28 32 -28 66 0 73 67 110
134 75z m963 -15 c26 -27 30 -36 25 -67 -8 -47 -33 -72 -80 -80 -31 -5 -40 -1
-67 25 -59 60 -26 152 55 152 27 0 44 -8 67 -30z m-459 -80 c74 -83 -14 -209
-117 -166 -78 32 -87 136 -16 184 46 31 94 25 133 -18z m-1030 -168 c24 -21
22 -77 -3 -102 -45 -45 -123 -13 -123 50 0 68 73 98 126 52z m2012 3 c29 -28
31 -45 10 -85 -25 -49 -98 -50 -125 0 -16 30 -12 62 12 87 29 31 72 30 103 -2z
m-1191 -105 c93 -45 126 -170 69 -258 -86 -132 -286 -95 -323 59 -20 82 17
161 92 198 54 26 110 27 162 1z m451 -14 c43 -33 74 -95 75 -146 0 -79 -68
-161 -146 -176 -169 -32 -283 174 -166 300 40 42 79 57 144 53 43 -2 65 -10
93 -31z m-902 -57 c73 -38 76 -148 6 -185 -48 -24 -87 -18 -125 20 -47 47 -47
95 0 142 36 36 77 44 119 23z m1288 -18 c87 -88 -28 -229 -131 -159 -88 60
-50 188 57 188 36 0 50 -6 74 -29z m-1064 -272 c34 -13 80 -55 99 -91 17 -32
18 -105 3 -145 -23 -61 -100 -112 -168 -113 -50 0 -119 37 -146 79 -98 148 47
333 212 270z m878 -12 c52 -29 85 -87 85 -150 0 -88 -50 -155 -133 -178 -126
-35 -256 95 -219 220 15 50 56 99 97 117 48 21 124 17 170 -9z m460 -71 c106
-45 48 -202 -62 -165 -32 10 -63 51 -63 83 0 31 26 69 55 82 37 16 30 16 70 0z
m-1860 -21 c28 -27 34 -88 12 -116 -33 -44 -93 -50 -134 -15 -22 19 -28 32
-28 66 0 34 6 47 28 66 38 32 90 32 122 -1z m-369 -13 c13 -8 34 -46 34 -61 0
-19 -39 -51 -62 -51 -50 0 -76 63 -41 102 16 18 49 23 69 10z m2581 -18 c15
-24 15 -29 2 -53 -27 -48 -109 -32 -109 22 0 56 76 77 107 31z m-1437 -253
c92 -66 101 -192 21 -272 -130 -130 -336 -13 -298 169 23 116 179 174 277 103z
m417 3 c100 -58 110 -225 17 -291 -88 -63 -204 -43 -264 44 -35 52 -35 144 0
195 58 86 154 106 247 52z m386 -62 c28 -24 46 -72 40 -104 -3 -14 -18 -39
-34 -54 -83 -80 -210 12 -165 119 26 63 110 84 159 39z m-1252 -11 c23 -24 29
-38 29 -74 0 -107 -128 -145 -188 -57 -69 102 72 218 159 131z m1614 -236 c48
-47 17 -125 -51 -125 -76 0 -101 112 -31 140 37 15 57 11 82 -15z m-2012 -2
c8 -10 19 -30 22 -45 6 -22 1 -33 -24 -59 -25 -25 -37 -30 -59 -25 -58 14 -82
86 -42 126 25 25 81 26 103 3z m1019 -122 c28 -25 33 -36 33 -76 0 -40 -5 -51
-33 -76 -95 -85 -225 30 -156 139 32 50 108 56 156 13z m476 -108 c24 -26 29
-71 11 -105 -17 -31 -71 -50 -108 -37 -31 11 -61 52 -61 83 0 31 26 69 55 82
38 16 74 9 103 -23z m-947 -2 c16 -16 29 -39 29 -51 0 -51 -49 -100 -100 -100
-10 0 -32 12 -49 26 -25 21 -31 33 -31 65 0 84 91 120 151 60z m-191 -311 c11
-11 20 -29 20 -40 0 -11 -9 -29 -20 -40 -11 -11 -29 -20 -40 -20 -25 0 -60 34
-60 58 0 54 62 80 100 42z m1282 3 c36 -32 10 -93 -40 -93 -30 0 -62 26 -62
49 0 51 64 79 102 44z m-633 -49 c27 -34 26 -57 -2 -90 -47 -54 -127 -24 -127
47 0 66 88 95 129 43z"/>
</g>
</svg>
